<?xml version="1.0" encoding="UTF-8"?><svg id="Capa_1" xmlns="http://www.w3.org/2000/svg" viewBox="0 0 1040 325.079987"><polygon points="270 165.000031 270 140.000031 285 125 330 125 330 165.000031 270 165.000031"/><polygon points="0 325.000031 0 265.000031 50 265.000031 50 274.769989 200 274.769989 200 325.000031 0 325.000031"/><polygon points="50 190.000031 50 255.000031 0 255.000031 0 140.000031 15 125 200 125 200 240.000031 185 255.000031 70 255.000031 70 205.000031 135 205.000031 150 190.000031 150 175.000031 65 175.000031 50 190.000031"/><polyline points="570 175.000031 485 175.000031 470 190.000031 470 325.000031 420 325.000031 420 140.000031 435 125 620 125"/><polygon points="780 175.000031 695 175.000031 680 190.000031 680 325.000031 630 325.000031 630 140.000031 645 125 830 125 780 175.000031"/><polyline points="780 190.079987 780 325.079987 830 325.079987 830 140.079987"/><polygon points="210 325.000031 210 15 225 0 260 0 260 240.000031 275 255.000031 410 255.000031 410 325.000031 210 325.000031"/><polyline points="890 125 890 240.000031 905 255.000031 1040 255.000031 1040 325.000031 840 325.000031 840 125"/><polyline points="840 115 840 15 855 0 890 0 890 115"/></svg>